{
    "asset": {
        "version": "2.0",
        "generator": "Open Asset Import Library (assimp v5.0.5eb040c7)"
    },
    "accessors": [
        {
            "bufferView": 0,
            "byteOffset": 0,
            "componentType": 5126,
            "count": 54,
            "type": "VEC3",
            "max": [
                69.97599792480469,
                36.229000091552737,
                25.0
            ],
            "min": [
                -125.02400207519531,
                19.229000091552736,
                -25.0
            ]
        },
        {
            "bufferView": 1,
            "byteOffset": 0,
            "componentType": 5126,
            "count": 54,
            "type": "VEC3",
            "max": [
                1.0,
                1.0,
                1.0
            ],
            "min": [
                -1.0,
                -1.0,
                -1.0
            ]
        },
        {
            "bufferView": 2,
            "byteOffset": 0,
            "componentType": 5125,
            "count": 144,
            "type": "SCALAR",
            "max": [
                53
            ],
            "min": [
                0
            ]
        },
        {
            "bufferView": 3,
            "byteOffset": 0,
            "componentType": 5126,
            "count": 192,
            "type": "VEC3",
            "max": [
                -72.54900360107422,
                32.84000015258789,
                37.5
            ],
            "min": [
                -102.54900360107422,
                2.8399999141693117,
                -37.5
            ]
        },
        {
            "bufferView": 4,
            "byteOffset": 0,
            "componentType": 5126,
            "count": 192,
            "type": "VEC3",
            "max": [
                1.0,
                1.0,
                1.0
            ],
            "min": [
                -1.0,
                -1.0,
                -1.0
            ]
        },
        {
            "bufferView": 5,
            "byteOffset": 0,
            "componentType": 5125,
            "count": 576,
            "type": "SCALAR",
            "max": [
                191
            ],
            "min": [
                0
            ]
        },
        {
            "bufferView": 6,
            "byteOffset": 0,
            "componentType": 5126,
            "count": 192,
            "type": "VEC3",
            "max": [
                67.42900085449219,
                32.84000015258789,
                37.5
            ],
            "min": [
                37.42900085449219,
                2.8399999141693117,
                -37.5
            ]
        },
        {
            "bufferView": 7,
            "byteOffset": 0,
            "componentType": 5126,
            "count": 192,
            "type": "VEC3",
            "max": [
                1.0,
                1.0,
                1.0
            ],
            "min": [
                -1.0,
                -1.0,
                -1.0
            ]
        },
        {
            "bufferView": 8,
            "byteOffset": 0,
            "componentType": 5125,
            "count": 576,
            "type": "SCALAR",
            "max": [
                191
            ],
            "min": [
                0
            ]
        },
        {
            "bufferView": 9,
            "byteOffset": 0,
            "componentType": 5126,
            "count": 54,
            "type": "VEC3",
            "max": [
                -75.0,
                85.0,
                25.0
            ],
            "min": [
                -125.0,
                35.0,
                -25.0
            ]
        },
        {
            "bufferView": 10,
            "byteOffset": 0,
            "componentType": 5126,
            "count": 54,
            "type": "VEC3",
            "max": [
                1.0,
                1.0,
                1.0
            ],
            "min": [
                -1.0,
                -1.0,
                -1.0
            ]
        },
        {
            "bufferView": 11,
            "byteOffset": 0,
            "componentType": 5125,
            "count": 144,
            "type": "SCALAR",
            "max": [
                53
            ],
            "min": [
                0
            ]
        },
        {
            "bufferView": 12,
            "byteOffset": 0,
            "componentType": 5126,
            "count": 54,
            "type": "VEC3",
            "max": [
                75.0,
                110.0,
                37.5
            ],
            "min": [
                -75.0,
                35.0,
                -37.5
            ]
        },
        {
            "bufferView": 13,
            "byteOffset": 0,
            "componentType": 5126,
            "count": 54,
            "type": "VEC3",
            "max": [
                1.0,
                1.0,
                1.0
            ],
            "min": [
                -1.0,
                -1.0,
                -1.0
            ]
        },
        {
            "bufferView": 14,
            "byteOffset": 0,
            "componentType": 5126,
            "count": 54,
            "type": "VEC2",
            "max": [
                1.0,
                1.0
            ],
            "min": [
                0.0,
                0.0
            ]
        },
        {
            "bufferView": 15,
            "byteOffset": 0,
            "componentType": 5125,
            "count": 144,
            "type": "SCALAR",
            "max": [
                53
            ],
            "min": [
                0
            ]
        }
    ],
    "buffers": [
        {
            "byteLength": 19872,
            "uri": "result.bin"
        }
    ],
    "bufferViews": [
        {
            "buffer": 0,
            "byteOffset": 0,
            "byteLength": 648,
            "target": 34962
        },
        {
            "buffer": 0,
            "byteOffset": 648,
            "byteLength": 648,
            "target": 34962
        },
        {
            "buffer": 0,
            "byteOffset": 1296,
            "byteLength": 576,
            "target": 34963
        },
        {
            "buffer": 0,
            "byteOffset": 1872,
            "byteLength": 2304,
            "target": 34962
        },
        {
            "buffer": 0,
            "byteOffset": 4176,
            "byteLength": 2304,
            "target": 34962
        },
        {
            "buffer": 0,
            "byteOffset": 6480,
            "byteLength": 2304,
            "target": 34963
        },
        {
            "buffer": 0,
            "byteOffset": 8784,
            "byteLength": 2304,
            "target": 34962
        },
        {
            "buffer": 0,
            "byteOffset": 11088,
            "byteLength": 2304,
            "target": 34962
        },
        {
            "buffer": 0,
            "byteOffset": 13392,
            "byteLength": 2304,
            "target": 34963
        },
        {
            "buffer": 0,
            "byteOffset": 15696,
            "byteLength": 648,
            "target": 34962
        },
        {
            "buffer": 0,
            "byteOffset": 16344,
            "byteLength": 648,
            "target": 34962
        },
        {
            "buffer": 0,
            "byteOffset": 16992,
            "byteLength": 576,
            "target": 34963
        },
        {
            "buffer": 0,
            "byteOffset": 17568,
            "byteLength": 648,
            "target": 34962
        },
        {
            "buffer": 0,
            "byteOffset": 18216,
            "byteLength": 648,
            "target": 34962
        },
        {
            "buffer": 0,
            "byteOffset": 18864,
            "byteLength": 432,
            "target": 34962
        },
        {
            "buffer": 0,
            "byteOffset": 19296,
            "byteLength": 576,
            "target": 34963
        }
    ],
    "materials": [
        {
            "name": "DefaultMaterial",
            "pbrMetallicRoughness": {
                "baseColorFactor": [
                    0.6000000238418579,
                    0.6000000238418579,
                    0.6000000238418579,
                    1.0
                ],
                "metallicFactor": 0.0
            }
        },
        {
            "name": "Box material 1_234cae72-c9b9-4185-a414-1a1a1a0e74b5",
            "pbrMetallicRoughness": {
                "baseColorFactor": [
                    0.6000000238418579,
                    0.6000000238418579,
                    0.6000000238418579,
                    1.0
                ],
                "metallicFactor": 0.0
            }
        },
        {
            "name": "Box Material 3_e1365090-647f-45df-99b9-3bb5d10ba9dc",
            "pbrMetallicRoughness": {
                "baseColorFactor": [
                    0.6000000238418579,
                    0.6000000238418579,
                    0.6000000238418579,
                    1.0
                ],
                "metallicFactor": 0.0
            }
        },
        {
            "name": "Box material 2_deb37cd0-99b1-4d3a-af2b-15f3a4b13e30",
            "pbrMetallicRoughness": {
                "baseColorFactor": [
                    0.6000000238418579,
                    0.6000000238418579,
                    0.6000000238418579,
                    1.0
                ],
                "metallicFactor": 0.0
            }
        }
    ],
    "meshes": [
        {
            "name": "Box_2",
            "primitives": [
                {
                    "mode": 4,
                    "material": 1,
                    "indices": 2,
                    "attributes": {
                        "POSITION": 0,
                        "NORMAL": 1
                    }
                }
            ]
        },
        {
            "name": "Tube_1",
            "primitives": [
                {
                    "mode": 4,
                    "material": 2,
                    "indices": 5,
                    "attributes": {
                        "POSITION": 3,
                        "NORMAL": 4
                    }
                }
            ]
        },
        {
            "name": "Tube",
            "primitives": [
                {
                    "mode": 4,
                    "material": 2,
                    "indices": 8,
                    "attributes": {
                        "POSITION": 6,
                        "NORMAL": 7
                    }
                }
            ]
        },
        {
            "name": "Box_1",
            "primitives": [
                {
                    "mode": 4,
                    "material": 1,
                    "indices": 11,
                    "attributes": {
                        "POSITION": 9,
                        "NORMAL": 10
                    }
                }
            ]
        },
        {
            "name": "Box",
            "primitives": [
                {
                    "mode": 4,
                    "material": 3,
                    "indices": 15,
                    "attributes": {
                        "POSITION": 12,
                        "NORMAL": 13,
                        "TEXCOORD_0": 14
                    }
                }
            ]
        }
    ],
    "nodes": [
        {
            "name": "input.obj",
            "children": [
                1,
                2,
                3,
                4,
                5,
                6,
                7,
                8,
                9,
                10
            ]
        },
        {
            "name": "000_Box_2"
        },
        {
            "name": "Box_2",
            "mesh": 0
        },
        {
            "name": "001_Tube_1"
        },
        {
            "name": "Tube_1",
            "mesh": 1
        },
        {
            "name": "002_Tube"
        },
        {
            "name": "Tube",
            "mesh": 2
        },
        {
            "name": "003_Box_1"
        },
        {
            "name": "Box_1",
            "mesh": 3
        },
        {
            "name": "004_Box"
        },
        {
            "name": "Box",
            "mesh": 4
        }
    ],
    "scenes": [
        {
            "nodes": [
                0
            ]
        }
    ],
    "scene": 0
}